<?xml version="1.0" encoding="UTF-8" standalone="no"?>
<!-- Created with Inkscape (http://www.inkscape.org/) -->

<svg
   version="1.1"
   id="svg1"
   width="790.17145"
   height="242.82117"
   viewBox="0 0 790.17145 242.82117"
   xmlns="http://www.w3.org/2000/svg"
   xmlns:svg="http://www.w3.org/2000/svg">
  <defs
     id="defs1" />
  <g
     id="g1"
     transform="translate(-111.79128,-707.70354)">
    <path
       style="fill:#000000"
       d="m 148.29128,950.15342 c -10.89285,-0.47937 -13.14873,-0.88608 -17.54564,-3.16329 -6.72174,-3.48125 -12.77452,-9.70239 -16.17305,-16.62294 l -2.78131,-5.66366 v -96.5 -96.5 l 2.78504,-5.2859 c 3.97701,-7.54823 9.04064,-12.73553 15.55442,-15.93432 l 5.66054,-2.77978 h 54.7443 54.74431 l 35.52803,35.5 35.52804,35.5 -0.27234,72.5 c -0.26724,71.14157 -0.31186,72.59616 -2.38141,77.63196 -4.09646,9.96781 -11.11682,16.60711 -20.95155,19.81431 -4.29908,1.40197 -13.17102,1.63949 -68.43938,1.83225 -34.925,0.12182 -69.125,-0.0261 -76,-0.32863 z m 147.17567,-3.61078 c 6.97763,-3.22476 13.13607,-9.44041 16.4389,-16.59163 l 2.88543,-6.24748 0.21656,-72 0.21657,-72 -35.21128,-35.25 -35.21129,-35.25 -54.50528,0.01 -54.50528,0.01 -5.10217,2.37573 c -6.60966,3.07767 -11.48098,8.02681 -15.03994,15.28017 l -2.85789,5.8241 v 95.5 95.5 l 2.80654,6 c 4.3076,9.20908 9.699,14.20131 18.96132,17.55746 4.98464,1.80616 8.80362,1.88512 80.73214,1.66919 75.02815,-0.22523 75.52922,-0.24015 80.17567,-2.38754 z M 139.88499,935.16226 c -3.7056,-1.10846 -9.21446,-6.38285 -11.69656,-11.19874 -1.86859,-3.62551 -1.91948,-6.5846 -1.66238,-96.66418 l 0.26523,-92.92418 3.01384,-4.28785 c 1.65762,-2.35832 4.58262,-5.20943 6.5,-6.33581 3.37685,-1.98375 4.92854,-2.04797 49.48616,-2.04797 h 46 l 0.5,26.5 c 0.49934,26.46502 0.5035,26.50594 3.15227,31 2.79607,4.74398 6.33263,7.79569 11.41692,9.85171 2.08248,0.84213 10.93453,1.3252 27.53465,1.5026 13.456,0.14381 25.01237,0.59947 25.68081,1.0126 0.93359,0.57699 1.21026,15.51671 1.19339,64.44211 -0.0207,59.91291 -0.13206,63.92825 -1.87789,67.69098 -2.16966,4.67617 -7.41218,9.92945 -11.41525,11.43867 -3.46513,1.3064 -143.7274,1.32541 -148.09119,0.0201 z m 151.3057,-3.2731 c 2.94426,-1.94867 4.99491,-4.40946 6.66665,-8 l 2.4144,-5.18563 0.01,-63.17531 0.01,-63.17531 -25.75,-0.32469 c -28.35844,-0.35758 -28.95275,-0.47594 -36.08532,-7.18664 -6.54752,-6.15983 -6.61531,-6.49701 -7.16514,-35.63805 l -0.5,-26.5 h -44 c -24.2,0 -45.22925,0.344 -46.73166,0.76445 -4.17915,1.16953 -9.45979,6.35686 -11.23057,11.03215 -1.42153,3.75319 -1.56237,14.02126 -1.31491,95.8676 l 0.27714,91.66419 3,4.25903 c 1.65,2.34247 4.9995,5.31466 7.44333,6.60487 l 4.44332,2.34583 72.13026,-0.26906 72.13026,-0.26906 z M 151.36386,905.56867 c -2.02842,-2.57871 -2.07258,-3.61314 -2.07258,-48.54545 v -45.9106 l 2.45455,-2.45454 2.45454,-2.45455 h 59.5065 59.5065 l 2.03895,2.18856 c 1.99174,2.13788 2.03896,3.27269 2.03896,49 0,45.47811 -0.057,46.86841 -2,48.81144 -1.9555,1.9555 -3.33333,2 -61.92742,2 h -59.92742 z m 123.09868,-0.0201 c 1.72154,-1.55797 1.82874,-4.37169 1.82874,-48 0,-45.01168 -0.0575,-46.40255 -2,-48.34501 -1.95497,-1.95497 -3.32278,-1.99966 -60.75,-1.98469 -32.3125,0.008 -59.24513,0.34592 -59.8503,0.75 -3.18443,2.12631 -3.3997,5.30296 -3.3997,50.16895 0,43.73241 0.0592,45.12491 2,47.06574 1.95493,1.95493 3.33333,2 61.17126,2 53.65616,0 59.34171,-0.15425 61,-1.65499 z m -109.94744,-26.57074 0.27618,-15.2743 15.3654,-0.27667 c 10.64186,-0.19161 15.79922,0.0834 16.77658,0.8945 1.11834,0.92814 1.35378,4.09822 1.1346,15.27667 l -0.27658,14.1055 -16.77618,0.2743 -16.77617,0.2743 z m 31.77618,-0.2743 v -14.5 h -15.5 -15.5 v 14.5 14.5 h 15.5 15.5 z m 14.44569,14.21907 c -0.27762,-0.72346 -0.37897,-7.59371 -0.22522,-15.26723 l 0.27953,-13.95184 h 25.5 25.5 v 15 15 l -25.27478,0.26722 c -20.15769,0.21312 -25.37696,9.2e-4 -25.77953,-1.04815 z m 50.55431,-14.21907 v -14.5 h -25 -25 v 14.5 14.5 h 25 25 z m -96.56092,-28.79816 c -0.27398,-0.71398 -0.37236,-7.57648 -0.21861,-15.25 l 0.27953,-13.95184 15.92474,-0.27628 c 12.07765,-0.20954 16.11579,0.032 16.71559,1 1.10742,1.78719 0.97792,24.33505 -0.15691,27.31989 l -0.93392,2.45639 h -15.55613 c -11.83018,0 -15.67545,-0.31093 -16.05429,-1.29816 z m 31.56092,-14.20184 v -14.5 h -15.5 -15.5 v 14.5 14.5 h 15.5 15.5 z m 14.44569,14.21907 c -0.27762,-0.72346 -0.37897,-7.59371 -0.22522,-15.26723 l 0.27953,-13.95184 h 25.5 25.5 v 15 15 l -25.27478,0.26722 c -20.15769,0.21312 -25.37696,9.2e-4 -25.77953,-1.04815 z m 50.55431,-14.21907 v -14.5 h -25 -25 v 14.5 14.5 h 25 25 z m -9,-59.25155 c -6.17808,-3.0863 -6.99668,-6.23738 -6.99845,-26.93943 -8.5e-4,-10.00504 0.39568,-18.43649 0.88119,-18.73655 1.33084,-0.8225 47.51451,44.97575 46.69363,46.30395 -0.47273,0.76491 -6.5014,1.12308 -18.88539,1.12203 -15.31528,-0.001 -18.74427,-0.27796 -21.69098,-1.75 z m 17.49185,-22.25851 -22.99185,-23.01006 -0.29485,16.26006 c -0.33414,18.42703 0.0187,21.50365 2.88404,25.14632 2.99098,3.80241 6.54897,4.42376 25.90266,4.52355 l 17.49184,0.0902 z m 229.96678,142.1304 c -5.46787,-2.48371 -9.0604,-7.03621 -10.3695,-13.14037 -0.70636,-3.29361 -1.08913,-23.33641 -1.08913,-57.02919 v -51.95078 h 11 11 l 0.0147,50.75 c 0.0113,38.78082 0.3117,51.33961 1.27384,53.25 1.03337,2.05179 2.10642,2.55464 5.98526,2.80479 l 4.7262,0.30479 v 7.82858 c 0,7.2732 -0.15962,7.87135 -2.25,8.43155 -4.83437,1.29557 -16.23391,0.59367 -20.29137,-1.24937 z m 59.04137,0.53286 c -6.5983,-2.17259 -10.59827,-4.63294 -16.30348,-10.02816 -11.51018,-10.88479 -15.59285,-26.64819 -11.68273,-45.1076 3.04703,-14.38481 10.3706,-24.19886 22.26144,-29.83179 6.4433,-3.05231 7.24797,-3.18565 19.22477,-3.18565 11.94843,0 12.79349,0.13905 19.15125,3.15125 8.40067,3.98009 14.21474,9.76935 18.05687,17.9798 2.55258,5.45474 3.0919,8.02611 3.54486,16.90125 l 0.53425,10.4677 h -31.14362 c -26.54693,0 -31.14361,0.21413 -31.14361,1.45078 0,0.79793 0.47658,3.67298 1.05906,6.389 1.507,7.0269 6.60218,12.68517 13.18246,14.6393 10.22343,3.03604 18.42013,1.08713 24.48651,-5.8221 l 3.21087,-3.65698 h 9.59794 c 9.48557,0 9.59008,0.0263 8.92692,2.25 -2.88988,9.6901 -11.6417,19.11552 -21.2171,22.85011 -7.10832,2.77239 -25.33542,3.66408 -31.74666,1.55309 z m 33.5,-54.4717 c 0,-4.45307 -3.184,-12.15853 -6.00487,-14.53214 -6.40408,-5.38868 -20.16948,-5.89787 -26.03423,-0.96301 -4.64871,3.91164 -7.80815,11.31686 -7.06686,16.56365 0.0583,0.4125 8.88096,0.75 19.60596,0.75 18.18458,0 19.5,-0.12267 19.5,-1.8185 z m -230.26535,-5.4315 0.23465,-59.25 35.01535,-0.10444 35.01535,-0.10443 v 9.85443 9.85444 h -24 -24 v 16 16 h 21.5 21.5 v 9.53789 9.53788 l -21.50093,-0.28788 -21.50093,-0.28789 9.3e-4,24.25 9.3e-4,24.25 h -11.25 l -11.25,10e-6 z m 85.26535,15.25 v -44 h 10.5 10.5 v 44 44 h -10.5 -10.5 z m 178,34.61129 v -9.38871 l 3.74571,-0.7027 c 3.17125,-0.59493 7.01488,-3.94765 25.06224,-21.86129 18.57663,-18.439 21.75897,-22.05833 24.7588,-28.15859 5.79118,-11.77657 5.5786,-21.11187 -0.61593,-27.04763 -2.82505,-2.70704 -3.76122,-2.97726 -11.26595,-3.25193 -13.05456,-0.4778 -18.1853,3.55911 -19.39278,15.25838 l -0.5719,5.54118 h -11.33509 -11.3351 l 0.58209,-3.25 c 3.53036,-19.71125 9.58332,-28.92633 22.28856,-33.93231 4.69508,-1.84991 7.63971,-2.20778 18.57935,-2.258 12.22332,-0.0561 13.36548,0.10921 19.11743,2.76738 11.70172,5.40775 18.31631,15.14002 19.16151,28.19292 0.56339,8.70086 -1.62478,17.88445 -6.06621,25.45939 -3.30981,5.64496 -19.75717,22.87966 -34.70112,36.36229 l -8.48838,7.65833 h 25.48838 25.48839 v 9 9 h -40.25 -40.25 z m 100.00016,-49.86129 1.6e-4,-59.25 35.49984,-0.0835 35.49984,-0.0835 v 9.83348 9.83348 h -25.05135 -25.05135 l 0.195,16 0.195,16 h 21.84425 21.84425 l -0.33016,9.25 -0.33016,9.25 -21.40774,0.19353 -21.40774,0.19352 v 24.05715 24.05714 l -10.75,-6.7e-4 -10.75,-6.7e-4 z m 67.99984,58.66689 c 0,-0.32071 8.0434,-23.83321 17.87421,-52.25 9.83082,-28.41679 18.86751,-54.70439 20.08153,-58.41689 l 2.20732,-6.75 h 13.81148 c 12.22261,0 13.89136,0.20132 14.50585,1.75 0.79014,1.99139 9.92143,28.11822 27.34823,78.25 6.59609,18.975 12.30619,35.2875 12.68912,36.25 0.63994,1.60849 -0.28017,1.75 -11.37826,1.75 h -12.07451 l -4.21074,-13.5 -4.21074,-13.5 h -22.61323 -22.61323 l -4.41703,13.5 -4.41703,13.5 h -11.29148 c -6.21032,0 -11.29149,-0.2624 -11.29149,-0.58311 z m 69.99177,-46.66689 c -0.53095,-1.2375 -4.14983,-12.375 -8.04196,-24.75 -3.89213,-12.375 -7.30433,-23.175 -7.58266,-24 -0.37711,-1.11776 -17.36715,48.37807 -17.36715,50.59443 0,0.22306 7.64035,0.40557 16.97856,0.40557 H 864.2484 Z M 450.58983,792.24401 c -8.70917,-5.31029 -8.1491,-18.03633 0.98452,-22.37052 4.27491,-2.02857 6.77981,-2.09663 10.99905,-0.29884 10.20087,4.34653 11.56143,17.0951 2.41933,22.66936 -4.09623,2.49762 -10.30667,2.49762 -14.4029,0 z"
       id="path1" />
    <path
       style="fill:#306ed6;fill-opacity:1;stroke-width:1.27473"
       d="m 137.67134,947.24763 c -9.78774,-2.47766 -18.02332,-9.88278 -22.43352,-20.17138 -2.3086,-5.38575 -2.42381,-10.10512 -2.42381,-99.29259 0,-92.68713 0.0273,-93.6926 2.68689,-99.00494 3.45192,-6.89495 9.44106,-13.22823 15.4273,-16.31378 4.44055,-2.28885 8.06101,-2.43777 59.26596,-2.43777 h 54.53649 l 32.08154,32.06303 c 17.64485,17.63467 31.94035,32.69247 31.7678,33.46179 -0.17256,0.76931 -0.0614,0.93346 0.24691,0.36477 0.30835,-0.56869 1.64841,-0.0496 2.97791,1.15362 2.31873,2.09842 2.41727,5.11615 2.41727,74.02643 0,69.87828 -0.0717,71.99128 -2.62593,77.42524 -1.44425,3.07251 -4.74262,7.71023 -7.32972,10.30602 -9.4607,9.4925 -3.91132,8.91182 -87.56155,9.16236 -41.36514,0.12389 -76.93023,-0.21037 -79.03354,-0.7428 z m 153.23501,-12.58384 c 1.549,-0.87576 4.41715,-3.69075 6.37368,-6.2555 l 3.55733,-4.6632 v -66.38614 -66.38613 l -25.7193,-0.85161 c -28.23808,-0.935 -31.57582,-1.73964 -37.33612,-9.00072 -3.9051,-4.92253 -4.98754,-13.48856 -5.07742,-40.18101 l -0.0655,-19.4397 h -46.59111 c -51.8382,0 -51.03197,-0.12128 -57.06492,8.58427 l -3.42167,4.93748 0.0555,89.80027 c 0.0305,49.39015 0.53986,92.30774 1.13183,95.37243 0.73543,3.80734 2.54061,7.03721 5.69961,10.19788 4.12572,4.12789 5.54728,4.71351 13.20893,5.44141 4.72211,0.44863 38.70125,0.72723 75.50921,0.61913 50.85671,-0.14937 67.59971,-0.57883 69.7399,-1.78886 z m 1.64524,-157.07505 c 1.53131,-0.9891 -2.69007,-5.80853 -21.19741,-24.20044 -12.71022,-12.63096 -23.66741,-22.96538 -24.3493,-22.96538 -3.34005,0 -2.52607,39.81284 0.89835,43.93901 0.8954,1.07889 3.42017,2.48123 5.61058,3.1163 5.39653,1.56462 36.64956,1.6531 39.03778,0.11051 z"
       id="path2" />
    <path
       style="fill:#306ed6;fill-opacity:1;stroke-width:1.27473"
       d="m 152.99678,904.27072 c -1.84177,-1.84177 -2.02429,-6.98672 -1.68447,-47.48387 0.20961,-24.98005 0.85002,-46.14314 1.42313,-47.02908 0.81719,-1.26324 13.72434,-1.57789 59.82001,-1.4583 51.61365,0.1339 59.02232,0.39678 60.7826,2.15669 1.74701,1.74664 2.00462,7.76514 2.00462,46.83353 0,36.12245 -0.33979,45.23888 -1.7495,46.93797 -1.5379,1.8536 -5.41811,2.10864 -32.08082,2.10864 -23.07232,0 -30.48519,-0.38134 -30.97428,-1.59342 -0.51436,-1.27474 -0.66308,-1.27474 -0.74359,0 -0.0772,1.22203 -6.46728,1.59342 -27.41638,1.59342 -23.48307,0 -27.60556,-0.28982 -29.38132,-2.06558 z m 97.80725,-9.32048 11.15393,-0.0865 V 878.9295 862.99532 l -15.93418,-0.11588 c -8.7638,-0.0637 -17.65508,-0.11589 -19.75839,-0.11589 -2.10331,0 -6.69236,0.0521 -10.19788,0.11589 l -6.37367,0.11588 v 15.74097 15.74096 l 9.21135,0.26897 c 5.06624,0.14793 9.31981,0.37828 9.45239,0.5119 0.13258,0.13361 2.72763,0.13847 5.76679,0.0108 3.03915,-0.12767 10.545,-0.27108 16.67966,-0.31868 z m -52.5828,-5.56791 c 0,-3.01475 0.71704,-6.25387 1.59342,-7.19805 1.14829,-1.23713 1.16412,-1.47517 0.0566,-0.8521 -1.12432,0.63255 -1.63749,-1.62654 -1.9121,-8.41745 l -0.37534,-9.28204 -16.8075,-0.35511 -16.8075,-0.3551 -0.40141,13.10245 c -0.63708,20.79431 -2.45714,18.83876 17.53352,18.83876 h 17.12026 z m -0.26841,-49.69508 c 0.27515,-8.35109 0.76128,-10.9626 1.9121,-10.27186 1.18214,0.70954 1.19895,0.49621 0.0719,-0.91189 -0.8092,-1.01096 -1.66965,-3.27219 -1.9121,-5.02495 l -0.44083,-3.18684 -16.89023,-0.35568 c -16.81328,-0.35406 -16.89061,-0.34245 -16.97178,2.54947 -0.24946,8.88734 0.33421,27.14002 0.89699,28.05061 0.36076,0.58372 7.92547,0.90109 16.81047,0.70527 l 16.15455,-0.35604 z m 64.25484,-5.26871 c 0.28909,-12.75508 0.016,-16.79477 -1.0741,-15.88736 -0.80396,0.66924 -7.1139,1.13733 -14.02208,1.04019 -6.90817,-0.0971 -18.15321,-0.11821 -24.98898,-0.0468 l -12.42866,0.1298 v 15.08435 c 0,8.2964 0.38242,15.46678 0.84982,15.93419 0.46741,0.4674 12.19579,0.84982 26.06308,0.84982 h 25.21325 z m -92.43454,-23.92635 c -0.40693,-1.0169 -0.70898,-0.71484 -0.77015,0.77015 -0.0554,1.34379 0.24593,2.09668 0.66952,1.67309 0.42358,-0.42358 0.46887,-1.52304 0.10063,-2.44324 z"
       id="path3" />
  </g>
</svg>
